<?xml version="1.0" standalone="no"?>
<!DOCTYPE svg PUBLIC "-//W3C//DTD SVG 20010904//EN"
 "http://www.w3.org/TR/2001/REC-SVG-20010904/DTD/svg10.dtd">
<svg version="1.0" xmlns="http://www.w3.org/2000/svg"
 width="576.000000pt" height="576.000000pt" viewBox="0 0 576.000000 576.000000"
 preserveAspectRatio="xMidYMid meet">
<metadata>
Created by potrace 1.14, written by Peter Selinger 2001-2017
</metadata>
<g transform="translate(0.000000,576.000000) scale(0.100000,-0.100000)"
fill="#000000" stroke="none">
<path d="M1320 5211 c0 -12 -8 -21 -22 -23 -17 -2 -22 -11 -24 -40 -3 -33 -1
-37 24 -40 15 -2 44 -1 65 1 28 2 37 7 37 22 0 10 3 18 8 18 4 -1 21 -1 38 0
30 1 32 3 29 39 l-2 37 -77 3 c-70 3 -76 1 -76 -17z"/>
<path d="M1673 5211 c-5 -18 -13 -21 -59 -21 -30 0 -54 -3 -55 -7 -7 -60 -6
-73 4 -74 7 0 51 -1 100 -2 97 -2 88 -11 91 81 1 36 0 37 -37 40 -32 3 -39 0
-44 -17z"/>
<path d="M2159 5228 c-8 -32 -10 -49 -13 -80 -4 -42 -10 -40 94 -39 129 0 118
-3 115 39 l-2 37 -64 5 c-48 4 -64 9 -64 20 0 10 -12 16 -32 18 -18 2 -33 2
-34 0z"/>
<path d="M2439 5228 c-1 -2 -2 -20 -3 -40 -2 -37 8 -46 47 -39 5 1 11 -8 14
-19 5 -19 14 -22 78 -22 62 0 62 0 61 42 -1 37 -3 40 -28 40 -21 0 -28 5 -28
20 0 18 -7 20 -70 20 -38 0 -70 -1 -71 -2z"/>
<path d="M2733 5191 c0 -25 4 -42 13 -45 8 -3 11 -12 8 -21 -5 -12 2 -15 30
-15 29 0 36 4 36 20 0 11 7 20 15 20 8 0 15 -9 15 -20 0 -16 7 -20 36 -20 31
0 36 3 31 20 -3 10 0 21 5 22 6 2 12 21 13 41 l1 37 -101 0 -101 0 -1 -39z"/>
<path d="M3090 5210 c0 -15 -7 -20 -25 -20 -14 0 -26 -3 -26 -7 -9 -43 -6 -73
7 -74 101 -4 119 -2 124 20 3 12 8 22 13 22 58 -5 57 -6 48 72 -1 4 -32 7 -71
7 -63 0 -70 -2 -70 -20z"/>
<path d="M3449 5226 c-1 -3 -2 -12 -3 -18 -1 -9 -24 -15 -66 -18 l-64 -5 -1
-37 c-1 -21 3 -38 9 -39 6 0 51 -1 99 -1 96 -2 107 4 101 50 -7 62 -10 67 -42
70 -18 2 -33 1 -33 -2z"/>
<path d="M1839 5183 c-8 -78 -10 -73 32 -74 21 0 68 0 104 0 135 0 132 -1 131
23 -1 14 -9 24 -24 28 -13 3 -22 10 -20 15 2 6 -40 11 -109 13 -62 1 -113 -1
-114 -5z"/>
<path d="M3604 5175 c-3 -8 -14 -17 -25 -20 -24 -8 -25 -45 -1 -46 9 -1 34 -1
55 0 33 1 40 -3 60 -36 14 -25 21 -53 21 -80 -1 -26 3 -43 10 -44 6 -1 18 -2
26 -3 17 -1 88 -113 86 -136 -1 -8 2 -15 5 -15 3 0 13 -6 22 -13 12 -10 21
-11 36 -3 11 6 31 11 45 11 19 0 26 5 26 20 0 11 3 19 8 19 4 -1 19 -1 33 0
25 1 27 4 24 39 l-2 37 -74 0 c-72 0 -89 6 -89 34 0 9 8 12 25 9 26 -5 29 -1
27 52 -2 56 -7 65 -43 65 -24 0 -34 -5 -34 -15 0 -10 -12 -16 -40 -18 -32 -2
-37 0 -22 8 9 6 15 16 11 22 -3 5 0 21 7 35 11 20 11 26 -1 33 -9 5 -19 5 -26
-1 -8 -7 -18 1 -34 26 -20 33 -25 35 -76 35 -39 0 -56 -4 -60 -15z"/>
<path d="M1117 5055 l-48 -83 23 -24 c21 -22 59 -48 71 -48 3 0 15 17 27 37
20 34 20 38 5 49 -15 11 -15 15 -2 41 8 15 17 40 21 55 5 23 2 30 -22 42 l-28
14 -47 -83z"/>
<path d="M1720 5051 c0 -13 -8 -21 -22 -23 -19 -2 -23 -10 -24 -40 -1 -29 2
-38 15 -39 103 -6 111 -5 111 19 0 12 3 21 8 21 4 -1 21 -1 39 0 33 1 32 -1
24 74 -1 4 -35 7 -76 7 -67 0 -75 -2 -75 -19z"/>
<path d="M2071 5063 c4 -27 -5 -32 -58 -35 l-58 -3 -2 -37 c-2 -30 2 -38 15
-39 70 -4 165 -3 173 1 10 7 19 87 12 107 -5 14 -84 19 -82 6z"/>
<path d="M2554 5048 c-14 -44 -13 -98 2 -99 8 0 43 -1 79 -1 130 0 121 -3 120
40 l-1 37 -64 5 c-49 4 -65 9 -65 20 0 10 -12 16 -32 18 -25 3 -33 -1 -39 -20z"/>
<path d="M2836 5062 c-3 -4 -4 -22 -4 -40 1 -31 10 -37 46 -33 6 1 16 -8 21
-21 8 -20 15 -23 62 -22 30 1 59 2 65 3 9 1 11 32 5 74 0 4 -12 7 -26 7 -18 0
-25 5 -25 20 0 18 -7 20 -69 20 -39 0 -72 -4 -75 -8z"/>
<path d="M3134 5030 c-1 -25 4 -41 13 -44 8 -3 11 -11 7 -17 -9 -16 13 -27 42
-21 15 3 23 10 22 20 -2 9 5 18 15 20 12 2 17 -3 17 -17 0 -17 6 -21 36 -21
27 0 35 4 31 14 -3 8 0 19 7 25 11 9 13 30 7 74 -1 4 -45 7 -99 7 l-97 0 -1
-40z"/>
<path d="M3490 5051 c0 -14 -8 -21 -27 -23 -25 -3 -28 -7 -29 -40 -1 -22 3
-38 10 -39 95 -7 119 -4 127 19 6 16 17 22 38 22 27 0 29 2 26 38 l-2 37 -71
3 c-66 3 -72 1 -72 -17z"/>
<path d="M2239 5023 c-6 -34 -3 -73 5 -74 15 -1 216 -1 244 0 28 1 30 37 3 46
-11 3 -22 12 -25 20 -4 12 -28 15 -116 15 -60 0 -111 -3 -111 -7z"/>
<path d="M4000 5010 c-6 -11 -16 -19 -23 -17 -6 1 -13 -8 -15 -20 -4 -25 -2
-25 66 -25 38 1 45 -2 66 -36 17 -27 22 -48 19 -79 -3 -41 -2 -43 25 -43 24 0
33 -11 75 -85 26 -46 52 -87 57 -90 6 -4 23 2 39 11 33 20 32 25 -15 101 -18
28 -30 54 -27 57 4 3 18 6 33 6 25 0 27 3 24 38 -5 70 -9 77 -43 80 -26 3 -34
-1 -38 -17 -4 -17 -13 -21 -42 -21 -30 1 -33 2 -18 11 14 8 15 14 7 24 -9 11
-7 17 9 27 18 11 19 14 5 29 -8 9 -23 15 -32 12 -11 -3 -23 7 -35 26 -17 29
-23 31 -72 31 -44 0 -56 -4 -65 -20z"/>
<path d="M1517 4895 l-49 -84 37 -36 c21 -19 43 -35 50 -35 7 0 23 17 35 37
20 34 20 38 5 49 -15 11 -15 15 -2 41 28 56 29 79 2 97 -13 9 -26 16 -27 16
-2 0 -25 -38 -51 -85z"/>
<path d="M2120 4891 c0 -13 -8 -21 -22 -23 -19 -2 -23 -9 -23 -40 -1 -32 3
-38 20 -39 11 0 39 -1 63 -2 37 -2 42 1 42 19 0 18 5 21 30 19 34 -3 47 13 46
55 -1 24 -3 25 -78 28 -72 3 -78 1 -78 -17z"/>
<path d="M2473 4891 c-5 -18 -13 -21 -59 -21 -30 0 -55 -3 -55 -7 -11 -73 -11
-73 29 -74 20 0 65 -1 99 -2 69 -2 69 -2 68 73 0 45 0 45 -38 48 -32 3 -39 0
-44 -17z"/>
<path d="M2955 4901 c-3 -5 -7 -32 -9 -60 -5 -58 -16 -52 109 -52 117 0 105
-9 96 74 -1 4 -28 7 -60 7 -51 0 -61 3 -66 20 -4 14 -15 20 -35 20 -16 0 -31
-4 -35 -9z"/>
<path d="M3233 4870 c0 -40 5 -44 40 -40 11 1 21 -7 24 -19 5 -18 13 -21 64
-21 33 0 62 -1 67 -2 8 -3 11 49 4 70 -2 6 -15 12 -28 12 -17 0 -24 6 -24 20
0 18 -7 20 -73 20 l-74 0 0 -40z"/>
<path d="M3534 4870 c-1 -24 4 -41 12 -44 8 -3 11 -12 8 -21 -5 -12 2 -15 30
-15 29 0 36 4 36 20 0 11 7 20 15 20 8 0 15 -9 15 -20 0 -16 7 -20 36 -20 31
0 36 3 31 20 -3 10 -1 20 4 22 12 4 20 45 12 63 -4 12 -26 15 -102 15 l-96 0
-1 -40z"/>
<path d="M2638 4863 c-6 -30 -2 -73 7 -73 5 -1 66 -1 135 -2 119 -1 125 0 128
20 2 13 -4 22 -16 27 -11 3 -23 12 -26 20 -4 12 -28 15 -116 15 -60 0 -111 -3
-112 -7z"/>
<path d="M4400 4851 c-6 -12 -16 -20 -23 -18 -6 1 -13 -8 -15 -20 -3 -22 0
-23 52 -23 l56 0 31 -50 31 -51 32 20 c19 13 30 27 28 38 -2 9 3 22 11 28 13
9 13 13 1 29 -11 15 -16 17 -28 7 -15 -13 -19 -10 -41 34 -8 16 -22 21 -67 23
-49 3 -58 0 -68 -17z"/>
<path d="M937 4746 l-46 -81 22 -17 c19 -15 24 -15 38 -2 8 8 20 14 26 14 6 0
16 13 23 30 10 24 17 29 35 24 20 -5 27 1 45 36 21 40 21 42 3 56 -22 16 -19
16 -64 18 -35 3 -37 1 -82 -78z"/>
<path d="M1940 4774 c-16 -26 -32 -56 -36 -66 -3 -10 -9 -18 -14 -18 -4 0 -10
-10 -13 -22 -6 -23 19 -55 60 -77 30 -15 28 -16 53 26 20 34 20 38 5 49 -15
11 -15 15 1 46 25 46 23 78 -3 95 -21 14 -24 13 -53 -33z"/>
<path d="M3985 4740 c-16 -9 -30 -25 -30 -35 0 -10 -6 -20 -13 -23 -6 -2 -12
-8 -12 -12 0 -8 65 -126 77 -139 2 -3 19 3 38 12 l35 17 -19 38 c-17 33 -18
41 -6 53 12 12 10 21 -13 60 l-27 46 -30 -17z"/>
<path d="M4573 4672 l-23 -17 57 -100 c31 -55 58 -102 60 -105 5 -5 73 31 72
39 -1 18 -119 196 -130 198 -8 2 -24 -5 -36 -15z"/>
<path d="M1369 4641 c-8 -14 -29 -51 -47 -82 l-32 -57 25 -16 c24 -16 26 -15
60 18 19 19 35 39 35 45 0 7 10 9 24 5 21 -5 28 0 46 36 12 23 20 43 18 45
-17 14 -59 29 -84 30 -23 1 -34 -5 -45 -24z"/>
<path d="M870 4550 c-19 -30 -29 -38 -45 -34 -16 4 -25 -4 -42 -38 l-22 -42
27 -18 c31 -21 52 -23 52 -6 0 9 3 9 12 0 7 -7 15 -12 19 -12 12 0 90 141 83
151 -3 5 -18 16 -33 23 -26 14 -28 13 -51 -24z"/>
<path d="M4371 4571 c-13 -10 -21 -23 -17 -30 4 -6 2 -11 -4 -11 -25 0 -18
-32 21 -97 l42 -70 33 19 c23 14 31 24 27 38 -3 11 -9 20 -13 20 -15 0 -20 44
-6 52 11 6 10 16 -8 53 -23 49 -39 54 -75 26z"/>
<path d="M4108 4507 c-11 -9 -14 -18 -8 -27 5 -8 6 -18 4 -22 -3 -4 3 -22 13
-39 17 -28 17 -31 2 -43 -15 -11 -15 -15 8 -54 l25 -43 27 17 c14 10 35 27 47
39 l21 23 -47 78 c-47 81 -63 93 -92 71z"/>
<path d="M1738 4427 l-47 -82 21 -17 c21 -15 24 -15 55 9 18 14 35 33 38 44 5
14 12 18 29 13 19 -4 27 1 45 31 11 20 21 40 21 44 0 12 -51 34 -85 37 -28 2
-34 -3 -77 -79z"/>
<path d="M4776 4416 c-16 -13 -26 -29 -22 -34 4 -6 -2 -15 -11 -21 -17 -9 -17
-12 -1 -38 9 -15 27 -47 39 -70 25 -48 28 -49 70 -28 l29 16 -21 40 c-18 37
-19 42 -4 52 14 11 12 17 -14 60 -17 26 -32 47 -33 47 -2 -1 -16 -11 -32 -24z"/>
<path d="M1271 4389 c-19 -29 -30 -37 -45 -33 -16 3 -26 -4 -42 -35 -12 -21
-19 -43 -15 -48 9 -14 42 -26 79 -28 30 -2 35 3 72 68 22 38 38 73 34 78 -3 5
-17 15 -32 23 -26 13 -28 12 -51 -25z"/>
<path d="M4512 4344 c-17 -11 -20 -19 -13 -28 6 -7 8 -16 5 -19 -4 -3 3 -21
15 -40 20 -33 20 -34 2 -43 -19 -9 -19 -10 5 -51 24 -39 26 -41 50 -29 13 7
34 24 47 38 l23 25 -45 81 c-25 45 -51 82 -56 82 -6 0 -21 -7 -33 -16z"/>
<path d="M722 4298 c-12 -24 -33 -63 -46 -88 -40 -75 -41 -86 -7 -103 28 -14
51 -8 51 14 0 4 23 46 51 94 l52 88 -24 18 c-36 28 -53 23 -77 -23z"/>
<path d="M1671 4229 c-18 -32 -26 -38 -45 -33 -18 4 -25 -2 -41 -33 -11 -21
-21 -41 -23 -44 -1 -3 14 -14 33 -25 29 -15 37 -17 44 -5 6 9 11 10 15 2 4 -6
11 -11 16 -11 12 0 91 140 84 151 -3 5 -18 16 -33 24 -27 14 -28 13 -50 -26z"/>
<path d="M4290 4210 c-19 -3 -45 -12 -58 -19 -19 -10 -21 -15 -11 -34 31 -57
41 -67 59 -57 14 8 20 4 30 -20 7 -17 18 -30 26 -30 7 0 17 -7 22 -16 7 -13
13 -13 35 -3 15 7 27 16 27 21 0 7 -88 160 -94 164 0 0 -17 -2 -36 -6z"/>
<path d="M4917 4189 c-16 -12 -24 -26 -20 -32 4 -7 9 -21 10 -32 2 -10 10 -29
18 -41 12 -19 12 -23 0 -28 -20 -7 -19 -18 6 -61 l21 -36 31 20 c16 10 36 30
44 42 13 22 11 30 -32 107 -26 45 -48 82 -49 82 0 0 -13 -10 -29 -21z"/>
<path d="M1126 4140 c-14 -22 -26 -42 -26 -46 0 -3 -8 -18 -18 -32 -24 -35
-42 -86 -33 -99 3 -6 16 -15 28 -21 24 -13 18 -20 103 127 l43 74 -24 18 c-34
26 -43 24 -73 -21z"/>
<path d="M549 4068 c-9 -17 -9 -24 4 -33 14 -10 14 -14 -4 -41 -17 -25 -49
-90 -49 -100 0 -8 62 -35 67 -30 4 3 30 47 59 98 l53 93 -22 17 c-24 19 -57
24 -57 8 0 -7 -6 -7 -20 0 -16 8 -21 6 -31 -12z"/>
<path d="M4705 4050 c-3 -5 -12 -7 -19 -4 -8 3 -28 -2 -46 -11 -29 -15 -30
-18 -17 -38 8 -12 19 -32 26 -45 9 -18 16 -20 30 -13 15 9 21 4 37 -24 10 -18
21 -32 25 -29 4 2 12 -3 17 -11 7 -14 13 -14 35 -4 28 13 34 28 18 45 -5 5
-20 30 -34 55 -50 91 -58 101 -72 79z"/>
<path d="M1537 3998 c-85 -138 -105 -186 -85 -200 46 -31 44 -32 108 79 l63
106 -24 18 c-32 24 -46 24 -62 -3z"/>
<path d="M4382 3953 l-32 -16 26 -46 c15 -25 33 -59 42 -74 11 -23 19 -27 38
-23 13 4 24 2 24 -4 0 -5 16 -2 35 7 19 9 35 21 35 25 0 5 -10 27 -22 48 -18
31 -27 38 -45 34 -17 -5 -25 1 -38 30 -20 41 -19 41 -63 19z"/>
<path d="M952 3918 c-16 -16 -15 -29 3 -42 12 -9 9 -21 -24 -77 l-39 -66 35
-17 c20 -9 38 -14 41 -12 3 3 29 47 58 98 l53 93 -22 17 c-24 19 -57 24 -57 8
0 -7 -6 -7 -18 -1 -13 7 -23 6 -30 -1z"/>
<path d="M5105 3890 c-3 -5 -12 -7 -19 -4 -8 3 -28 -2 -45 -11 -28 -14 -30
-18 -20 -38 30 -56 41 -67 58 -57 14 7 21 2 36 -25 10 -19 21 -32 25 -30 4 3
13 -2 20 -10 9 -11 17 -11 36 -3 13 6 24 15 24 20 0 13 -94 168 -102 168 -4 0
-9 -4 -13 -10z"/>
<path d="M413 3837 c-5 -7 -19 -31 -31 -54 -21 -38 -21 -43 -6 -51 15 -9 15
-12 -2 -41 l-19 -32 25 -19 c14 -11 30 -20 37 -20 7 0 29 30 49 66 33 59 35
67 20 76 -12 7 -14 14 -7 26 7 14 2 22 -24 39 -25 17 -35 19 -42 10z"/>
<path d="M4778 3792 l-28 -18 33 -56 c19 -30 37 -63 40 -73 5 -12 14 -15 32
-11 14 4 25 2 25 -4 0 -5 16 -2 35 7 19 9 35 21 35 26 0 5 -10 27 -22 49 -18
32 -26 38 -45 33 -19 -4 -26 1 -40 30 -19 40 -27 42 -65 17z"/>
<path d="M1401 3762 c-7 -13 -12 -14 -23 -4 -11 9 -17 9 -26 0 -16 -16 -15
-35 3 -45 11 -7 7 -20 -24 -74 l-39 -66 35 -17 c18 -9 35 -16 37 -16 2 0 19
26 36 58 18 31 43 76 57 98 l24 42 -35 20 c-33 19 -36 20 -45 4z"/>
<path d="M4523 3712 l-31 -17 27 -50 c61 -113 93 -165 103 -165 5 0 20 8 33
18 l24 19 -33 65 c-33 63 -84 148 -89 148 -1 -1 -16 -9 -34 -18z"/>
<path d="M786 3631 c-22 -43 -23 -51 -10 -61 13 -11 12 -17 -5 -45 l-19 -32
28 -17 c16 -9 33 -16 39 -16 5 0 27 30 47 66 33 59 35 67 20 76 -12 7 -14 14
-7 27 8 14 4 21 -19 34 -15 9 -33 17 -38 17 -5 0 -21 -22 -36 -49z"/>
<path d="M5178 3631 l-27 -17 39 -68 c22 -38 40 -72 40 -77 0 -6 10 -4 22 2
16 8 23 9 26 1 4 -13 72 16 72 30 0 5 -10 27 -22 48 -18 30 -28 38 -44 34 -15
-4 -25 3 -39 30 -22 40 -28 42 -67 17z"/>
<path d="M254 3563 c-10 -21 -31 -57 -46 -82 l-28 -45 43 -28 c54 -36 69 -35
86 4 13 28 13 33 -1 42 -14 8 -12 16 13 63 l29 53 -30 15 c-41 21 -44 20 -66
-22z"/>
<path d="M4922 3550 c-32 -20 -33 -22 -18 -44 8 -13 36 -59 62 -103 25 -43 48
-80 50 -82 2 -2 15 2 29 9 30 16 29 50 -3 102 -12 19 -22 40 -22 47 0 6 -4 11
-8 11 -5 0 -17 18 -28 40 -10 22 -21 40 -24 40 -3 0 -20 -9 -38 -20z"/>
<path d="M1188 3475 c-23 -46 -25 -55 -12 -65 12 -11 11 -16 -4 -42 -17 -29
-16 -30 7 -49 13 -10 29 -19 37 -19 7 0 30 30 50 66 33 59 35 67 20 76 -12 7
-14 14 -7 27 8 15 3 22 -27 39 l-37 21 -27 -54z"/>
<path d="M4667 3464 c-20 -11 -26 -20 -22 -34 12 -37 106 -185 116 -182 6 1
21 10 35 18 l24 16 -37 65 c-27 49 -33 67 -23 73 8 5 10 17 6 35 -6 22 -9 25
-22 14 -11 -9 -18 -9 -26 -1 -15 15 -17 15 -51 -4z"/>
<path d="M660 3412 c-9 -15 -30 -52 -48 -82 l-31 -56 49 -32 c57 -37 56 -37
64 -14 3 9 11 25 18 34 10 15 10 20 -4 34 -15 15 -14 19 8 51 31 46 30 67 -1
81 -35 16 -38 16 -55 -16z"/>
<path d="M5323 3391 l-32 -20 61 -105 c33 -59 63 -106 66 -106 4 0 19 8 34 18
l27 18 -39 74 c-22 41 -48 90 -57 108 -9 17 -19 32 -22 32 -3 0 -20 -9 -38
-19z"/>
<path d="M5062 3302 c-27 -21 -25 -30 30 -120 21 -34 38 -65 38 -68 0 -3 6
-11 13 -19 11 -11 19 -10 45 7 l32 20 -37 65 c-32 58 -34 67 -21 77 25 18 4
48 -28 40 -14 -4 -24 -2 -24 5 0 16 -22 13 -48 -7z"/>
<path d="M146 3294 c-4 -11 -10 -12 -25 -5 -17 9 -24 1 -65 -71 -26 -45 -44
-88 -42 -95 6 -16 46 -17 46 -2 0 6 8 9 19 6 14 -3 23 4 35 30 14 29 19 32 35
23 17 -8 23 -3 46 35 29 50 27 58 -15 80 -25 13 -29 13 -34 -1z"/>
<path d="M1033 3205 c-24 -41 -43 -80 -43 -88 0 -7 15 -22 32 -32 59 -36 63
-36 84 2 17 33 17 37 2 46 -15 10 -14 16 12 62 l29 51 -29 17 c-15 9 -32 17
-37 17 -4 0 -27 -34 -50 -75z"/>
<path d="M4838 3244 c-33 -17 -33 -18 -11 -55 16 -26 16 -30 1 -41 -15 -12
-14 -18 14 -65 31 -56 34 -56 83 -20 16 12 17 18 7 30 -10 12 -10 16 3 21 8 3
15 10 15 15 0 14 -70 131 -78 131 -4 -1 -19 -8 -34 -16z"/>
<path d="M5467 3144 c-16 -8 -27 -21 -25 -27 8 -31 105 -187 116 -187 7 0 24
7 37 16 l25 16 -37 65 c-33 60 -35 67 -20 78 14 10 15 15 3 30 -8 11 -20 16
-29 12 -9 -3 -19 -2 -22 3 -8 13 -15 12 -48 -6z"/>
<path d="M546 3133 c-4 -10 -10 -11 -25 -4 -17 9 -24 1 -65 -71 -26 -45 -44
-88 -42 -95 6 -16 46 -17 46 -2 0 6 8 9 18 7 14 -4 24 4 37 28 14 27 21 31 35
24 15 -8 23 -2 45 35 29 50 28 57 -15 78 -25 13 -29 13 -34 0z"/>
<path d="M5238 3084 c-33 -17 -33 -18 -11 -54 15 -26 15 -29 0 -44 -15 -15
-14 -20 15 -64 17 -26 32 -48 33 -49 0 -1 15 7 33 17 27 17 31 23 23 39 -8 14
-7 20 4 25 8 3 15 11 15 17 0 15 -69 129 -78 129 -4 -1 -19 -8 -34 -16z"/>
<path d="M4 3048 c-3 -4 4 -24 15 -42 18 -29 19 -35 6 -40 -22 -8 -18 -25 18
-83 l33 -52 32 19 c36 22 37 23 20 50 -10 16 -10 22 5 32 16 12 15 17 -16 67
-29 48 -36 54 -70 56 -21 1 -40 -2 -43 -7z"/>
<path d="M4887 2970 c-9 -14 -17 -20 -17 -15 0 6 -10 -7 -23 -27 -17 -29 -25
-35 -39 -27 -13 7 -20 1 -37 -27 -12 -19 -21 -39 -21 -45 0 -10 43 -31 70 -35
8 -1 21 -3 28 -5 7 -2 26 20 43 51 17 30 37 65 46 78 16 26 11 52 -11 52 -8 0
-16 5 -18 12 -3 7 -11 2 -21 -12z"/>
<path d="M940 2971 c0 -4 -10 -7 -22 -4 -19 3 -30 -8 -66 -73 -24 -42 -41 -82
-38 -90 6 -17 46 -19 46 -3 0 6 7 9 15 5 9 -3 23 7 38 28 17 26 26 32 39 25
13 -7 22 1 43 38 l28 46 -24 18 c-25 19 -59 25 -59 10z"/>
<path d="M5638 2924 c-33 -17 -33 -18 -11 -55 16 -26 16 -30 1 -41 -15 -12
-13 -18 14 -66 l30 -53 32 20 c23 15 30 26 28 44 -2 15 3 27 13 31 14 5 12 12
-12 49 -15 23 -33 51 -39 62 -14 25 -24 27 -56 9z"/>
<path d="M400 2887 c0 -7 7 -22 15 -33 17 -22 20 -54 5 -54 -16 0 -12 -15 22
-73 l31 -55 34 16 c37 17 39 23 21 53 -11 17 -10 22 5 30 19 11 17 17 -30 92
-18 28 -27 36 -36 28 -8 -6 -18 -6 -27 -1 -21 14 -40 12 -40 -3z"/>
<path d="M180 2803 c-14 -9 -26 -17 -28 -19 -2 -1 11 -28 29 -59 29 -51 31
-59 17 -69 -14 -10 -14 -15 -2 -39 15 -28 28 -34 39 -17 4 6 10 8 15 5 11 -7
70 22 70 34 0 14 -100 181 -108 181 -4 0 -19 -8 -32 -17z"/>
<path d="M5261 2783 c-17 -21 -31 -40 -31 -44 0 -3 -11 -4 -24 -2 -19 4 -27
-2 -40 -28 -9 -17 -16 -35 -16 -39 0 -11 52 -33 85 -37 32 -3 28 -8 99 120 20
38 20 39 1 53 -29 21 -41 17 -74 -23z"/>
<path d="M805 2730 c-4 -6 0 -22 9 -35 18 -27 21 -55 6 -55 -16 0 -12 -15 22
-73 31 -55 32 -56 59 -41 37 19 42 29 28 56 -9 17 -9 24 4 33 16 12 15 16 -30
88 -20 32 -26 36 -43 27 -12 -7 -21 -7 -25 0 -8 13 -22 13 -30 0z"/>
<path d="M4661 2685 c-25 -43 -26 -49 -6 -65 14 -12 14 -15 0 -30 -25 -27 -27
-88 -5 -100 29 -16 36 -12 56 28 10 20 21 39 24 42 3 3 15 24 28 46 19 36 20
43 7 48 -8 3 -15 12 -15 19 0 17 -17 32 -46 41 -17 5 -26 0 -43 -29z"/>
<path d="M585 2643 c-16 -8 -31 -17 -33 -18 -2 -2 11 -29 29 -60 26 -46 29
-59 18 -65 -18 -12 1 -67 22 -61 8 2 22 3 33 3 10 -1 29 6 42 15 29 19 27 30
-27 118 -21 36 -39 69 -39 75 0 14 -9 12 -45 -7z"/>
<path d="M5661 2623 c-17 -21 -31 -41 -31 -46 0 -4 -9 -3 -19 3 -16 8 -22 4
-40 -26 -12 -19 -21 -39 -21 -43 0 -12 51 -34 85 -38 28 -2 33 3 73 72 23 41
42 79 42 84 0 11 -32 31 -49 31 -5 0 -23 -17 -40 -37z"/>
<path d="M321 2591 c-28 -18 -19 -73 23 -146 23 -38 45 -78 51 -89 12 -22 11
-22 48 -5 15 7 27 17 27 24 0 15 -120 225 -128 225 -4 0 -13 -4 -21 -9z"/>
<path d="M5061 2524 c-23 -39 -26 -54 -11 -54 13 0 13 -33 -1 -47 -5 -5 -12
-27 -14 -47 -3 -31 1 -39 21 -48 13 -6 26 -9 28 -7 1 2 22 36 45 76 41 71 50
103 31 103 -5 0 -10 7 -10 15 0 12 -47 45 -64 45 -2 0 -13 -16 -25 -36z"/>
<path d="M980 2483 c-14 -9 -26 -17 -28 -19 -2 -1 11 -28 29 -60 22 -38 29
-59 21 -62 -16 -5 -15 -32 2 -54 10 -14 19 -16 43 -9 55 16 74 31 68 51 -9 28
-95 170 -104 170 -3 0 -18 -8 -31 -17z"/>
<path d="M4500 2404 c-35 -61 -41 -77 -29 -85 8 -4 14 -14 14 -21 0 -6 14 -20
31 -30 l31 -18 28 42 c26 39 26 42 10 54 -17 12 -16 15 4 49 11 20 21 39 21
43 0 7 -52 42 -62 42 -3 0 -24 -34 -48 -76z"/>
<path d="M712 2424 c-10 -11 -11 -18 -2 -28 8 -11 8 -15 -2 -19 -10 -3 -7 -17
12 -53 14 -27 28 -51 31 -54 4 -3 17 -24 29 -47 24 -47 40 -52 75 -25 l23 18
-66 112 c-37 62 -71 112 -77 112 -5 -1 -16 -8 -23 -16z"/>
<path d="M5460 2364 c-21 -37 -21 -64 1 -64 7 0 5 -10 -6 -27 -10 -15 -19 -42
-21 -61 -2 -27 2 -35 22 -44 13 -6 26 -9 28 -7 1 2 22 36 45 76 41 71 50 103
31 103 -5 0 -10 7 -10 15 0 12 -47 45 -64 45 -2 0 -14 -16 -26 -36z"/>
<path d="M4900 2244 c-33 -60 -39 -78 -28 -85 7 -5 13 -14 13 -21 0 -6 14 -20
32 -30 l31 -19 26 43 c23 39 24 44 10 55 -15 11 -15 15 5 48 11 20 21 39 21
43 0 7 -53 42 -63 42 -3 0 -24 -34 -47 -76z"/>
<path d="M472 2274 c-29 -13 -52 -27 -52 -33 0 -5 8 -23 17 -40 13 -22 23 -29
38 -25 16 4 26 -4 43 -35 13 -22 26 -42 30 -45 5 -3 22 4 39 15 l32 20 -31 52
c-17 29 -38 66 -47 83 l-17 31 -52 -23z"/>
<path d="M1114 2268 c-23 -37 -1 -101 82 -235 l14 -22 34 20 34 20 -24 42
c-13 23 -27 49 -31 57 -58 113 -91 148 -109 118z"/>
<path d="M4365 2172 c-21 -37 -49 -86 -62 -109 l-24 -42 30 -16 c28 -14 32
-14 49 3 10 10 35 49 56 88 22 38 45 77 53 86 13 15 11 19 -24 37 l-40 20 -38
-67z"/>
<path d="M5300 2084 c-39 -68 -42 -77 -27 -86 10 -5 15 -13 12 -18 -7 -11 55
-51 67 -44 8 5 48 78 48 89 0 3 -7 5 -15 5 -20 0 -19 8 5 48 11 18 20 36 20
40 0 7 -52 42 -62 42 -3 0 -24 -34 -48 -76z"/>
<path d="M863 2110 c-48 -21 -51 -29 -26 -71 14 -23 23 -29 40 -24 19 4 26 -2
44 -37 12 -24 23 -45 25 -47 1 -2 19 6 38 18 l35 22 -31 52 c-17 29 -38 64
-45 80 -17 32 -24 33 -80 7z"/>
<path d="M4802 2072 c-6 -2 -12 -8 -12 -13 0 -5 -10 -26 -23 -47 -13 -20 -38
-62 -55 -93 l-32 -57 26 -17 c25 -16 27 -16 50 6 24 22 114 170 114 186 0 12
-54 40 -68 35z"/>
<path d="M553 2043 c-20 -7 -16 -18 34 -102 40 -67 50 -77 70 -73 13 2 23 -1
23 -7 0 -16 10 -14 47 9 l33 20 -31 50 c-24 40 -34 48 -47 41 -13 -7 -21 -2
-35 21 -13 21 -24 29 -37 25 -11 -3 -21 1 -24 9 -6 15 -12 16 -33 7z"/>
<path d="M4206 1895 c-31 -53 -56 -99 -56 -103 0 -4 13 -14 28 -23 28 -16 52
-15 52 2 0 5 14 31 31 59 24 39 34 48 44 40 9 -8 17 -6 29 6 16 15 16 18 1 34
-9 10 -15 23 -13 29 2 6 -11 20 -28 31 l-32 21 -56 -96z"/>
<path d="M1273 1954 c-29 -12 -53 -26 -53 -29 0 -4 7 -22 16 -41 13 -27 21
-33 38 -28 18 4 26 -3 45 -38 13 -24 25 -45 27 -46 6 -8 64 33 64 45 0 7 -17
41 -38 75 -21 35 -41 68 -43 74 -3 8 -21 4 -56 -12z"/>
<path d="M5165 1852 c-21 -37 -48 -86 -62 -108 l-23 -41 25 -17 c24 -16 27
-16 48 0 21 16 117 174 117 192 0 7 -27 24 -61 38 -3 2 -23 -27 -44 -64z"/>
<path d="M953 1883 c-20 -7 -17 -16 33 -100 55 -94 50 -89 68 -74 11 10 16 9
24 -4 8 -16 12 -16 45 2 l36 18 -30 53 c-24 43 -33 51 -47 43 -13 -7 -20 -3
-35 21 -13 21 -24 29 -37 25 -11 -3 -21 1 -24 9 -6 15 -12 16 -33 7z"/>
<path d="M4620 1758 c-24 -40 -49 -83 -56 -95 -19 -31 -18 -36 17 -56 35 -19
40 -16 71 43 31 61 40 71 55 59 11 -9 17 -8 28 7 11 16 11 21 -1 35 -8 9 -14
22 -12 29 2 7 -11 21 -29 32 l-32 19 -41 -73z"/>
<path d="M765 1756 c-28 -16 -39 -29 -38 -43 2 -16 58 -123 80 -152 2 -3 19 3
39 13 26 12 34 21 30 33 -4 9 0 24 9 33 14 15 14 18 0 30 -11 9 -18 10 -29 1
-19 -16 -30 13 -14 38 9 15 8 24 -5 45 -21 31 -22 31 -72 2z"/>
<path d="M1351 1721 c-16 -10 -14 -15 31 -92 60 -100 54 -95 72 -80 13 11 17
11 22 -3 8 -20 12 -20 51 4 l33 19 -32 50 c-25 41 -34 49 -47 41 -14 -7 -21
-2 -35 21 -13 21 -24 29 -36 26 -11 -3 -21 1 -24 9 -6 16 -15 17 -35 5z"/>
<path d="M4133 1685 c-4 -11 -13 -15 -28 -11 -18 5 -28 -3 -53 -43 -46 -74
-47 -84 -12 -105 30 -17 31 -17 50 6 11 13 19 26 20 31 0 4 10 5 23 2 18 -5
26 3 49 44 29 52 28 55 -20 80 -18 10 -23 9 -29 -4z"/>
<path d="M5051 1657 c-6 -6 -11 -14 -11 -18 0 -4 -20 -42 -45 -83 -25 -42 -45
-80 -45 -84 0 -12 57 -40 67 -33 5 3 24 32 42 64 27 48 35 56 47 46 12 -10 17
-8 29 7 11 16 11 21 -1 35 -8 9 -14 22 -12 29 5 19 -57 51 -71 37z"/>
<path d="M1167 1599 c-21 -11 -40 -25 -43 -33 -4 -9 59 -136 83 -165 2 -3 19
3 38 12 25 12 33 21 28 33 -4 10 0 22 10 29 14 10 15 14 3 31 -11 15 -17 16
-29 6 -20 -17 -31 11 -15 37 9 15 8 24 -5 45 -20 30 -20 30 -70 5z"/>
<path d="M925 1523 c-16 -9 -31 -17 -33 -18 -2 -2 4 -18 13 -36 16 -30 16 -33
1 -41 -15 -9 -14 -14 10 -56 36 -63 39 -66 60 -53 45 25 47 28 35 49 -9 17 -8
23 6 30 15 9 15 14 -8 56 -43 82 -49 87 -84 69z"/>
<path d="M4534 1525 c-5 -11 -14 -15 -29 -11 -18 5 -28 -3 -53 -43 -46 -74
-47 -84 -12 -105 30 -17 31 -17 50 6 11 13 19 26 20 31 0 4 10 5 23 2 18 -5
26 3 49 44 l27 49 -22 14 c-44 29 -47 29 -53 13z"/>
<path d="M1558 1434 l-47 -25 30 -52 c16 -29 37 -67 46 -84 19 -38 23 -39 64
-17 23 11 29 20 24 35 -4 11 -2 19 5 19 6 0 10 10 8 23 -2 17 -9 21 -30 19
-30 -3 -35 8 -16 37 9 15 8 24 -5 45 -21 31 -20 31 -79 0z"/>
<path d="M3969 1405 c-19 -36 -27 -43 -46 -39 -17 5 -25 -1 -37 -25 -9 -16
-16 -32 -16 -35 0 -7 101 -59 105 -54 1 2 23 39 48 83 l46 80 -22 17 c-35 28
-52 21 -78 -27z"/>
<path d="M1322 1360 c-32 -20 -33 -20 -16 -52 15 -29 15 -32 0 -40 -15 -9 -14
-14 10 -56 36 -63 39 -66 60 -53 45 25 47 28 35 49 -9 18 -8 23 10 33 12 6 17
14 12 18 -6 3 -20 24 -31 46 -39 75 -42 78 -80 55z"/>
<path d="M4927 1359 c-9 -13 -17 -16 -22 -10 -3 6 -10 11 -15 11 -9 0 -85
-129 -79 -134 21 -16 55 -36 61 -36 4 0 14 13 23 29 11 22 21 29 39 28 14 -1
26 3 27 8 1 6 12 25 25 44 26 39 25 45 -16 66 -27 14 -30 14 -43 -6z"/>
<path d="M1067 1281 c-15 -10 -30 -20 -33 -23 -2 -3 11 -32 31 -64 31 -52 33
-60 19 -71 -22 -16 -1 -57 26 -48 10 3 21 1 24 -4 7 -11 79 27 74 38 -6 14
-110 191 -111 190 -1 0 -14 -8 -30 -18z"/>
<path d="M4372 1250 c-22 -40 -31 -48 -49 -44 -17 5 -25 -1 -38 -25 -9 -18
-14 -35 -11 -39 6 -10 96 -55 100 -51 3 3 80 139 92 161 2 3 -12 15 -31 27
l-35 20 -28 -49z"/>
<path d="M1723 1200 c-31 -19 -44 -40 -24 -40 17 0 21 -44 5 -53 -13 -7 -11
-15 12 -55 36 -63 39 -66 60 -53 45 25 47 27 35 50 -10 17 -9 22 4 27 8 3 15
10 15 14 0 7 -70 130 -74 130 0 0 -16 -9 -33 -20z"/>
<path d="M3776 1150 c-24 -44 -25 -50 -10 -58 15 -9 15 -12 -1 -40 -14 -23
-16 -34 -7 -44 6 -8 7 -19 2 -28 -6 -10 -2 -18 11 -28 11 -8 22 -12 23 -11 2
2 25 42 52 88 41 72 46 84 32 92 -9 5 -14 17 -11 27 4 16 -9 27 -58 49 -3 1
-18 -20 -33 -47z"/>
<path d="M1462 1118 l-32 -20 35 -63 35 -63 -25 3 c-16 1 -29 -4 -34 -14 -10
-22 -8 -60 5 -69 6 -4 13 -15 17 -24 9 -25 48 -23 54 2 4 15 14 20 38 20 29 0
32 -3 30 -30 -1 -17 10 -51 27 -81 l29 -51 62 6 c99 9 95 7 95 43 0 35 -1 36
-71 35 -32 -1 -41 3 -57 31 -11 18 -17 40 -14 50 19 61 9 83 -36 79 -21 -2
-30 6 -54 50 -16 29 -39 67 -51 85 l-21 32 -32 -21z"/>
<path d="M4772 1090 c-22 -40 -31 -48 -49 -44 -17 5 -25 -1 -37 -25 -9 -16
-16 -32 -16 -35 0 -7 101 -59 105 -54 2 3 81 140 91 160 2 3 -12 15 -31 27
l-35 20 -28 -49z"/>
<path d="M1203 1052 c-27 -22 -24 -57 12 -117 26 -44 26 -45 80 -45 30 0 57 5
61 11 3 6 15 9 25 6 16 -4 19 0 19 29 0 32 -2 34 -37 35 -21 1 -46 0 -56 0
-10 -2 -24 10 -35 29 -9 18 -24 41 -32 51 -14 18 -16 18 -37 1z"/>
<path d="M4198 1022 c-9 -9 -23 -31 -32 -49 -15 -30 -15 -33 0 -41 15 -9 15
-12 -2 -41 -14 -23 -15 -34 -7 -42 8 -8 9 -18 3 -29 -6 -11 -3 -19 11 -28 17
-11 23 -7 53 40 60 96 70 120 53 129 -8 5 -13 17 -11 27 4 11 -5 23 -24 34
-28 17 -30 17 -44 0z"/>
<path d="M1807 972 c-9 -2 -17 -12 -17 -23 0 -10 -3 -18 -7 -18 -33 5 -41 -3
-39 -38 l1 -38 61 -1 c68 -1 84 -7 84 -31 0 -10 -6 -14 -20 -10 -10 3 -23 0
-28 -7 -13 -18 -8 -69 8 -75 8 -3 15 -13 15 -21 0 -8 10 -16 23 -18 17 -3 25
2 29 17 4 16 13 21 38 21 29 0 32 -3 30 -30 -1 -17 10 -51 27 -81 l29 -51 57
5 c90 7 97 10 100 45 4 35 1 36 -71 33 -32 -1 -40 3 -57 31 -11 18 -17 41 -14
51 3 10 7 31 9 47 4 30 -7 37 -52 31 -19 -3 -65 74 -67 114 -2 19 -6 38 -10
42 -7 8 -97 11 -129 5z"/>
<path d="M2178 972 c-30 -3 -38 -7 -38 -23 0 -10 -7 -19 -15 -19 -8 0 -15 9
-15 20 0 15 -7 20 -25 20 -19 0 -25 -5 -25 -21 0 -11 -4 -18 -9 -14 -11 6 -28
-23 -26 -45 1 -8 3 -21 3 -27 2 -10 29 -13 100 -13 l99 0 -2 60 c-1 33 -4 61
-6 63 -2 1 -21 1 -41 -1z"/>
<path d="M2399 972 l-57 -3 0 -36 c0 -26 5 -37 19 -40 10 -3 19 -14 19 -25 0
-18 7 -19 100 -17 98 1 100 2 100 25 0 17 -6 24 -20 24 -11 0 -20 7 -20 15 0
8 -8 15 -17 16 -10 1 -27 2 -38 3 -10 0 -21 10 -25 21 -4 17 -12 20 -61 17z"/>
<path d="M2654 972 c-29 -3 -31 -6 -30 -40 l1 -37 55 -5 c40 -4 55 -9 55 -20
0 -11 12 -15 45 -15 l45 0 -3 55 c-2 30 -4 56 -6 57 -5 5 -127 8 -162 5z"/>
<path d="M2954 972 l-52 -3 2 -37 1 -37 113 -3 c95 -2 112 0 112 13 0 8 3 14
8 14 23 -4 32 4 32 26 0 17 -6 25 -17 26 -76 3 -156 4 -199 1z"/>
<path d="M3209 965 c-3 -23 4 -70 12 -92 11 -30 58 -32 66 -3 4 16 15 20 72
22 63 3 66 4 67 28 1 49 -7 53 -115 54 -61 1 -101 -3 -102 -9z"/>
<path d="M3593 972 c-25 -3 -33 -8 -33 -23 0 -13 -6 -20 -17 -18 -35 3 -40 -2
-39 -38 l1 -38 68 -3 c61 -3 67 -1 67 17 0 16 8 20 42 23 31 2 44 8 46 21 2
10 -3 17 -12 17 -9 0 -16 8 -16 19 0 20 -42 29 -107 23z"/>
<path d="M4576 831 c-24 -45 -25 -51 -10 -59 16 -9 16 -12 -4 -45 -16 -28 -18
-37 -7 -41 8 -3 11 -13 8 -25 -3 -13 2 -23 15 -30 17 -9 24 -1 67 76 41 73 46
87 33 94 -9 5 -14 17 -12 27 4 11 -5 23 -25 35 -16 9 -31 17 -33 17 -3 0 -17
-22 -32 -49z"/>
<path d="M2189 793 c-5 -13 -17 -23 -27 -23 -15 0 -19 -7 -18 -37 l1 -38 63
-3 c57 -3 62 -1 62 18 0 16 6 20 34 20 36 0 48 14 41 51 -6 31 -9 33 -81 33
-60 1 -67 -1 -75 -21z"/>
<path d="M2549 809 c-5 -3 -9 -12 -7 -19 2 -8 -5 -16 -14 -18 -13 -2 -18 3
-18 17 0 16 -6 21 -26 21 -18 0 -25 -4 -21 -14 3 -8 -4 -18 -17 -24 -22 -10
-24 -20 -17 -74 1 -5 44 -8 96 -8 52 0 96 3 96 8 6 32 5 90 -1 101 -8 15 -53
21 -71 10z"/>
<path d="M2752 810 c-4 -3 -8 -20 -9 -39 -2 -26 2 -34 17 -38 11 -3 20 -14 20
-24 0 -17 9 -19 100 -19 l100 0 0 26 c0 21 -4 25 -20 21 -15 -4 -20 0 -20 14
0 13 -8 19 -25 20 -45 2 -48 4 -55 23 -5 16 -16 20 -54 20 -26 1 -51 -1 -54
-4z"/>
<path d="M3031 810 c-4 -3 -7 -21 -7 -40 l1 -35 56 -5 c47 -4 56 -8 53 -23 -2
-16 4 -18 44 -15 47 3 47 3 45 38 -2 19 -3 45 -4 58 -1 16 -8 22 -25 23 -92 4
-157 3 -163 -1z"/>
<path d="M3318 812 c-12 -2 -16 -14 -14 -40 l1 -37 113 -3 c99 -2 112 -1 112
14 0 12 6 15 21 11 17 -5 20 -1 17 25 l-3 31 -116 1 c-63 1 -123 0 -131 -2z"/>
<path d="M3609 800 c0 -8 -2 -27 -3 -42 -1 -16 1 -28 5 -28 4 0 9 -9 12 -20 4
-15 14 -20 36 -20 24 0 31 4 31 20 0 18 7 20 64 20 47 0 65 4 69 15 6 15 1 54
-8 63 -3 3 -50 6 -105 6 -82 1 -100 -2 -101 -14z"/>
<path d="M3983 812 c-15 -2 -23 -10 -23 -23 0 -11 -6 -19 -12 -18 -39 5 -46
-1 -45 -38 l2 -38 68 -3 c61 -3 67 -1 67 17 0 16 8 20 42 23 31 2 44 8 46 21
2 10 -3 17 -12 17 -9 0 -16 8 -16 20 0 12 -7 20 -17 21 -10 0 -31 1 -48 2 -16
1 -40 1 -52 -1z"/>
<path d="M2241 640 c-11 -22 -8 -60 5 -68 6 -4 13 -15 17 -25 8 -22 52 -20 52
3 0 12 16 16 70 18 40 2 73 8 77 15 8 12 3 55 -7 65 -3 3 -51 6 -106 6 -80 1
-102 -2 -108 -14z"/>
<path d="M2600 652 c-5 -2 -10 -12 -10 -23 0 -10 -3 -18 -7 -18 -33 5 -41 -3
-40 -38 l2 -38 63 -3 c57 -3 62 -1 62 18 0 16 6 20 34 20 41 0 48 14 37 80 -1
6 -125 7 -141 2z"/>
<path d="M2958 652 c-10 -2 -18 -12 -18 -23 0 -10 -7 -19 -15 -19 -8 0 -15 9
-15 20 0 15 -7 20 -25 20 -14 0 -24 -3 -24 -7 3 -20 -2 -34 -10 -28 -14 8 -24
-13 -26 -52 l-1 -33 102 0 102 0 -2 55 c-1 30 -5 58 -9 62 -9 8 -34 10 -59 5z"/>
<path d="M3184 652 c-39 -3 -41 -4 -42 -39 -1 -27 3 -36 18 -40 11 -3 20 -14
20 -24 0 -17 9 -19 100 -19 l100 0 0 25 c0 18 -5 25 -20 25 -11 0 -20 7 -20
15 0 15 -16 19 -53 15 -11 -1 -21 7 -24 18 -6 23 -22 28 -79 24z"/>
<path d="M3438 652 c-10 -2 -15 -14 -14 -40 l1 -37 55 -5 c40 -4 55 -9 55 -20
0 -19 74 -27 86 -9 4 7 5 28 3 48 -3 20 -5 42 -6 49 -1 6 -13 12 -27 13 -110
3 -139 4 -153 1z"/>
<path d="M3727 652 c-25 -3 -27 -7 -24 -40 l2 -37 113 -3 c95 -2 112 0 112 13
0 8 3 14 8 14 23 -4 32 4 32 26 0 14 -3 25 -7 26 -35 2 -214 3 -236 1z"/>
<path d="M4029 652 c-23 -3 -26 -7 -22 -37 6 -62 20 -85 49 -85 17 0 28 6 31
20 4 16 15 20 72 22 63 3 66 4 67 28 1 48 -8 53 -92 54 -44 1 -91 0 -105 -2z"/>
<path d="M4389 652 c-17 -2 -29 -11 -32 -23 -3 -12 -14 -19 -30 -19 -22 0 -24
-4 -23 -37 l1 -38 68 -3 c62 -3 67 -1 67 18 0 17 6 20 40 20 49 0 64 23 31 46
-12 9 -19 20 -16 25 4 5 -4 9 -17 10 -13 0 -32 1 -43 2 -11 1 -32 1 -46 -1z"/>
</g>
</svg>
